<svg xmlns="http://www.w3.org/2000/svg" viewBox="0 0 120 120">
  <!-- Logo inspirado en el Mundial 2026 (sustituible por el oficial: assets/logo.svg) -->
  <defs>
    <linearGradient id="g1" x1="0" y1="0" x2="1" y2="1">
      <stop offset="0" stop-color="#21c469"/>
      <stop offset="1" stop-color="#0e7a3e"/>
    </linearGradient>
    <linearGradient id="g2" x1="0" y1="0" x2="0" y2="1">
      <stop offset="0" stop-color="#ffe08a"/>
      <stop offset="1" stop-color="#f5c343"/>
    </linearGradient>
  </defs>
  <rect x="4" y="4" width="112" height="112" rx="28" fill="#0b1426" stroke="rgba(255,255,255,0.12)" stroke-width="2"/>
  <!-- Trofeo -->
  <g transform="translate(33 16)">
    <path d="M12 0h30v8c0 14-6 22-15 24-9-2-15-10-15-24z" fill="url(#g2)"/>
    <path d="M12 4H2c0 10 4 16 11 17M42 4h10c0 10-4 16-11 17" fill="none" stroke="url(#g2)" stroke-width="4" stroke-linecap="round"/>
    <rect x="23" y="32" width="8" height="9" fill="url(#g2)"/>
    <rect x="16" y="41" width="22" height="6" rx="2" fill="url(#g2)"/>
  </g>
  <!-- 26 -->
  <text x="60" y="102" text-anchor="middle" font-family="Arial Black, Arial, sans-serif" font-size="38" font-weight="900" fill="url(#g1)">26</text>
</svg>
